<svg role="img" viewBox="0 0 448 448" xmlns="http://www.w3.org/2000/svg"><title>CV</title><path d="m 56.8,43.2 c -25.175,0 -45.6,20.425 -45.6,45.6 v 334.4 c 0,25.175 20.425,45.6 45.6,45.6 h 334.4 c 25.175,0 45.6,-20.425 45.6,-45.6 V 88.8 c 0,-25.175 -20.425,-45.6 -45.6,-45.6 z m 93.93682,126.57266 c 18.65291,0 35.22685,6.44884 47.43134,16.12217 11.28595,8.97922 16.57183,17.96189 21.18389,26.02295 l -32.22764,16.10176 c -2.30534,-5.2871 -5.07961,-10.81777 -12.20341,-16.79757 -7.8356,-6.22434 -15.65433,-8.06015 -22.34727,-8.06015 -26.24534,0 -40.06143,24.40888 -40.06143,51.57275 0,35.69458 18.20267,53.40967 40.06143,53.40967 21.18371,0 29.7135,-14.73498 35.22607,-24.16378 l 32.01983,16.34669 c -5.99883,9.42916 -11.75458,18.65338 -24.65176,27.61494 -6.89937,4.83615 -22.77863,14.28525 -45.34951,14.28525 C 106.7568,342.22734 72,310.91911 72,255.87754 c 0,-48.1041 32.69457,-86.10488 78.73682,-86.10488 z m 71.7083,5.06171 h 43.28622 l 33.61368,115.59385 33.36875,-115.59385 H 376 l -56.40996,162.55577 h -41.43076 z"></svg>